<mxfile host="app.diagrams.net" agent="Mozilla/5.0 (Windows NT 10.0; Win64; x64) AppleWebKit/537.36 (KHTML, like Gecko) Chrome/131.0.0.0 Safari/537.36 OPR/116.0.0.0" version="26.0.12">
  <diagram name="Página-1" id="fh4KVaTLT4rVOwyniBJN">
    <mxGraphModel dx="1632" dy="753" grid="1" gridSize="10" guides="1" tooltips="1" connect="1" arrows="1" fold="1" page="1" pageScale="1" pageWidth="827" pageHeight="1169" math="0" shadow="0">
      <root>
        <mxCell id="0" />
        <mxCell id="1" parent="0" />
        <mxCell id="tYYlDMSHgzgQFrv5HUEB-4" style="edgeStyle=orthogonalEdgeStyle;rounded=0;orthogonalLoop=1;jettySize=auto;html=1;entryX=0;entryY=0.5;entryDx=0;entryDy=0;" edge="1" parent="1" source="tYYlDMSHgzgQFrv5HUEB-1" target="tYYlDMSHgzgQFrv5HUEB-2">
          <mxGeometry relative="1" as="geometry" />
        </mxCell>
        <mxCell id="tYYlDMSHgzgQFrv5HUEB-1" value="Funcionário" style="shape=umlActor;verticalLabelPosition=bottom;verticalAlign=top;html=1;outlineConnect=0;" vertex="1" parent="1">
          <mxGeometry x="80" y="250" width="30" height="60" as="geometry" />
        </mxCell>
        <mxCell id="tYYlDMSHgzgQFrv5HUEB-12" style="edgeStyle=orthogonalEdgeStyle;rounded=0;orthogonalLoop=1;jettySize=auto;html=1;" edge="1" parent="1" source="tYYlDMSHgzgQFrv5HUEB-2" target="tYYlDMSHgzgQFrv5HUEB-8">
          <mxGeometry relative="1" as="geometry" />
        </mxCell>
        <mxCell id="tYYlDMSHgzgQFrv5HUEB-2" value="Autenticar" style="ellipse;whiteSpace=wrap;html=1;" vertex="1" parent="1">
          <mxGeometry x="204" y="250" width="90" height="60" as="geometry" />
        </mxCell>
        <mxCell id="tYYlDMSHgzgQFrv5HUEB-10" style="edgeStyle=orthogonalEdgeStyle;rounded=0;orthogonalLoop=1;jettySize=auto;html=1;entryX=0.5;entryY=0;entryDx=0;entryDy=0;" edge="1" parent="1" source="tYYlDMSHgzgQFrv5HUEB-3" target="tYYlDMSHgzgQFrv5HUEB-5">
          <mxGeometry relative="1" as="geometry" />
        </mxCell>
        <mxCell id="tYYlDMSHgzgQFrv5HUEB-14" style="edgeStyle=orthogonalEdgeStyle;rounded=0;orthogonalLoop=1;jettySize=auto;html=1;entryX=1;entryY=0.5;entryDx=0;entryDy=0;" edge="1" parent="1" source="tYYlDMSHgzgQFrv5HUEB-3" target="tYYlDMSHgzgQFrv5HUEB-2">
          <mxGeometry relative="1" as="geometry" />
        </mxCell>
        <mxCell id="tYYlDMSHgzgQFrv5HUEB-3" value="System" style="shape=umlActor;verticalLabelPosition=bottom;verticalAlign=top;html=1;outlineConnect=0;" vertex="1" parent="1">
          <mxGeometry x="430" y="250" width="30" height="60" as="geometry" />
        </mxCell>
        <mxCell id="tYYlDMSHgzgQFrv5HUEB-9" style="edgeStyle=orthogonalEdgeStyle;rounded=0;orthogonalLoop=1;jettySize=auto;html=1;entryX=1;entryY=0.5;entryDx=0;entryDy=0;" edge="1" parent="1" source="tYYlDMSHgzgQFrv5HUEB-5" target="tYYlDMSHgzgQFrv5HUEB-8">
          <mxGeometry relative="1" as="geometry" />
        </mxCell>
        <mxCell id="tYYlDMSHgzgQFrv5HUEB-5" value="Valida Primeira Estadia" style="ellipse;whiteSpace=wrap;html=1;" vertex="1" parent="1">
          <mxGeometry x="400" y="420" width="90" height="60" as="geometry" />
        </mxCell>
        <mxCell id="tYYlDMSHgzgQFrv5HUEB-7" value="Include" style="text;html=1;align=center;verticalAlign=middle;whiteSpace=wrap;rounded=0;" vertex="1" parent="1">
          <mxGeometry x="320" y="420" width="60" height="30" as="geometry" />
        </mxCell>
        <mxCell id="tYYlDMSHgzgQFrv5HUEB-17" style="edgeStyle=orthogonalEdgeStyle;rounded=0;orthogonalLoop=1;jettySize=auto;html=1;" edge="1" parent="1" source="tYYlDMSHgzgQFrv5HUEB-8" target="tYYlDMSHgzgQFrv5HUEB-15">
          <mxGeometry relative="1" as="geometry" />
        </mxCell>
        <mxCell id="tYYlDMSHgzgQFrv5HUEB-8" value="Cria Ficha Cliente" style="ellipse;whiteSpace=wrap;html=1;" vertex="1" parent="1">
          <mxGeometry x="204" y="420" width="90" height="60" as="geometry" />
        </mxCell>
        <mxCell id="tYYlDMSHgzgQFrv5HUEB-13" value="Include" style="text;html=1;align=center;verticalAlign=middle;whiteSpace=wrap;rounded=0;" vertex="1" parent="1">
          <mxGeometry x="240" y="340" width="60" height="30" as="geometry" />
        </mxCell>
        <mxCell id="tYYlDMSHgzgQFrv5HUEB-18" style="edgeStyle=orthogonalEdgeStyle;rounded=0;orthogonalLoop=1;jettySize=auto;html=1;entryX=0.5;entryY=0;entryDx=0;entryDy=0;" edge="1" parent="1" source="tYYlDMSHgzgQFrv5HUEB-15" target="tYYlDMSHgzgQFrv5HUEB-16">
          <mxGeometry relative="1" as="geometry" />
        </mxCell>
        <mxCell id="tYYlDMSHgzgQFrv5HUEB-15" value="Regista Entrada" style="ellipse;whiteSpace=wrap;html=1;" vertex="1" parent="1">
          <mxGeometry x="204" y="540" width="90" height="60" as="geometry" />
        </mxCell>
        <mxCell id="tYYlDMSHgzgQFrv5HUEB-16" value="Regista Saida" style="ellipse;whiteSpace=wrap;html=1;" vertex="1" parent="1">
          <mxGeometry x="204" y="660" width="90" height="60" as="geometry" />
        </mxCell>
        <mxCell id="tYYlDMSHgzgQFrv5HUEB-19" value="Include" style="text;html=1;align=center;verticalAlign=middle;whiteSpace=wrap;rounded=0;" vertex="1" parent="1">
          <mxGeometry x="240" y="490" width="60" height="30" as="geometry" />
        </mxCell>
        <mxCell id="tYYlDMSHgzgQFrv5HUEB-20" value="Include" style="text;html=1;align=center;verticalAlign=middle;whiteSpace=wrap;rounded=0;" vertex="1" parent="1">
          <mxGeometry x="240" y="610" width="60" height="30" as="geometry" />
        </mxCell>
      </root>
    </mxGraphModel>
  </diagram>
</mxfile>
